<svg width="18" height="18" viewBox="0 0 18 18" fill="none" xmlns="http://www.w3.org/2000/svg">
<path fill-rule="evenodd" clip-rule="evenodd" d="M10.7676 8.36097H13.0741C13.4238 8.36097 13.6986 8.07183 13.6986 7.72316C13.6986 7.36598 13.4238 7.08534 13.0741 7.08534H10.7676C10.4178 7.08534 10.143 7.36598 10.143 7.72316C10.143 8.07183 10.4178 8.36097 10.7676 8.36097ZM15.8136 3.9396C16.3215 3.9396 16.6546 4.11819 16.9876 4.50938C17.3207 4.90058 17.379 5.46186 17.3041 5.97126L16.513 11.55C16.3631 12.6224 15.4638 13.4125 14.4063 13.4125H5.32174C4.21427 13.4125 3.29831 12.5459 3.20672 11.4233L2.44065 2.15286L1.18329 1.93175C0.850221 1.87222 0.617069 1.54055 0.675357 1.20038C0.733645 0.852558 1.05839 0.622093 1.39979 0.673969L3.38575 0.979271C3.66886 1.03115 3.87703 1.26842 3.90201 1.55756L4.06022 3.46251C4.0852 3.7355 4.3017 3.9396 4.56816 3.9396H15.8136ZM5.1885 14.7566C4.48905 14.7566 3.92282 15.3349 3.92282 16.0492C3.92282 16.7551 4.48905 17.3334 5.1885 17.3334C5.87963 17.3334 6.44586 16.7551 6.44586 16.0492C6.44586 15.3349 5.87963 14.7566 5.1885 14.7566ZM14.5562 14.7566C13.8567 14.7566 13.2905 15.3349 13.2905 16.0492C13.2905 16.7551 13.8567 17.3334 14.5562 17.3334C15.2473 17.3334 15.8135 16.7551 15.8135 16.0492C15.8135 15.3349 15.2473 14.7566 14.5562 14.7566Z" fill="#32A7E2"/>
</svg>
