<svg width="18" height="15" viewBox="0 0 18 15" fill="none" xmlns="http://www.w3.org/2000/svg">
<path fill-rule="evenodd" clip-rule="evenodd" d="M13.5331 2.69697C13.5664 2.75524 13.6247 2.79686 13.6997 2.79686C15.6997 2.79686 17.3331 4.42838 17.3331 6.42616V11.3707C17.3331 13.3684 15.6997 15 13.6997 15H4.29975C2.29141 15 0.666412 13.3684 0.666412 11.3707V6.42616C0.666412 4.42838 2.29141 2.79686 4.29975 2.79686C4.36641 2.79686 4.43308 2.76357 4.45808 2.69697L4.50808 2.59708C4.5368 2.53663 4.56628 2.47453 4.59621 2.41149C4.8094 1.96244 5.04526 1.46564 5.19141 1.17367C5.57475 0.424498 6.22475 0.00829357 7.03308 -3.05176e-05H10.9581C11.7664 0.00829357 12.4247 0.424498 12.8081 1.17367C12.9393 1.4359 13.1393 1.85832 13.3321 2.26544C13.3718 2.34941 13.4113 2.43272 13.4497 2.51384L13.5331 2.69697ZM12.9248 5.89343C12.9248 6.30964 13.2581 6.6426 13.6748 6.6426C14.0915 6.6426 14.4331 6.30964 14.4331 5.89343C14.4331 5.47723 14.0915 5.13594 13.6748 5.13594C13.2581 5.13594 12.9248 5.47723 12.9248 5.89343ZM7.55816 7.18367C7.94982 6.79244 8.45816 6.58434 8.99982 6.58434C9.54149 6.58434 10.0498 6.79244 10.4332 7.17535C10.8165 7.55826 11.0248 8.06603 11.0248 8.60709C11.0165 9.72252 10.1165 10.6298 8.99982 10.6298C8.45816 10.6298 7.94982 10.4217 7.56649 10.0388C7.18316 9.65592 6.97482 9.14816 6.97482 8.60709V8.59877C6.96649 8.07435 7.17482 7.56658 7.55816 7.18367ZM11.3081 10.9212C10.7164 11.5122 9.89972 11.8784 8.99973 11.8784C8.12473 11.8784 7.30806 11.5372 6.68306 10.9212C6.06639 10.2969 5.72473 9.48111 5.72473 8.60708C5.71639 7.74138 6.05806 6.92562 6.67473 6.30131C7.29973 5.677 8.12473 5.33572 8.99973 5.33572C9.87473 5.33572 10.6997 5.677 11.3164 6.29299C11.9331 6.91729 12.2747 7.74138 12.2747 8.60708C12.2664 9.51441 11.8997 10.3302 11.3081 10.9212Z" fill="#FF8700"/>
</svg>
