<svg width="40" height="40" viewBox="0 0 40 40" fill="none" xmlns="http://www.w3.org/2000/svg">
<rect opacity="0.1" width="40" height="40" rx="15" fill="#FF8700"/>
<path fill-rule="evenodd" clip-rule="evenodd" d="M24.5331 15.1969C24.5664 15.2552 24.6247 15.2968 24.6997 15.2968C26.6997 15.2968 28.3331 16.9284 28.3331 18.9261V23.8706C28.3331 25.8684 26.6997 27.4999 24.6997 27.4999H15.2997C13.2914 27.4999 11.6664 25.8684 11.6664 23.8706V18.9261C11.6664 16.9284 13.2914 15.2968 15.2997 15.2968C15.3664 15.2968 15.4331 15.2635 15.4581 15.1969L15.5081 15.0971C15.5368 15.0366 15.5663 14.9745 15.5962 14.9115C15.8094 14.4624 16.0453 13.9656 16.1914 13.6736C16.5747 12.9245 17.2247 12.5083 18.0331 12.4999H21.9581C22.7664 12.5083 23.4247 12.9245 23.8081 13.6736C23.9393 13.9359 24.1393 14.3583 24.3321 14.7654C24.3718 14.8494 24.4113 14.9327 24.4497 15.0138L24.5331 15.1969ZM23.9248 18.3934C23.9248 18.8096 24.2581 19.1426 24.6748 19.1426C25.0915 19.1426 25.4331 18.8096 25.4331 18.3934C25.4331 17.9772 25.0915 17.6359 24.6748 17.6359C24.2581 17.6359 23.9248 17.9772 23.9248 18.3934ZM18.5582 19.6836C18.9498 19.2924 19.4582 19.0843 19.9998 19.0843C20.5415 19.0843 21.0498 19.2924 21.4332 19.6753C21.8165 20.0582 22.0248 20.566 22.0248 21.1071C22.0165 22.2225 21.1165 23.1298 19.9998 23.1298C19.4582 23.1298 18.9498 22.9217 18.5665 22.5388C18.1832 22.1559 17.9748 21.6481 17.9748 21.1071V21.0987C17.9665 20.5743 18.1748 20.0666 18.5582 19.6836ZM22.3081 23.4211C21.7164 24.0122 20.8997 24.3784 19.9997 24.3784C19.1247 24.3784 18.3081 24.0371 17.6831 23.4211C17.0664 22.7968 16.7247 21.9811 16.7247 21.1071C16.7164 20.2413 17.0581 19.4256 17.6747 18.8013C18.2997 18.177 19.1247 17.8357 19.9997 17.8357C20.8747 17.8357 21.6997 18.177 22.3164 18.793C22.9331 19.4173 23.2747 20.2413 23.2747 21.1071C23.2664 22.0144 22.8997 22.8301 22.3081 23.4211Z" fill="#FF8700"/>
</svg>
