<svg width="20" height="20" viewBox="0 0 20 20" fill="none" xmlns="http://www.w3.org/2000/svg">
<path fill-rule="evenodd" clip-rule="evenodd" d="M17.46 0H14.08C12.67 0 11.54 1.15 11.54 2.561V5.97C11.54 7.39 12.67 8.53 14.08 8.53H17.46C18.86 8.53 20 7.39 20 5.97V2.561C20 1.15 18.86 0 17.46 0ZM2.54 1.77734e-05H5.92C7.33 1.77734e-05 8.46 1.15002 8.46 2.56102V5.97002C8.46 7.39002 7.33 8.53002 5.92 8.53002H2.54C1.14 8.53002 0 7.39002 0 5.97002V2.56102C0 1.15002 1.14 1.77734e-05 2.54 1.77734e-05ZM2.54001 11.4697H5.92001C7.33001 11.4697 8.46001 12.6107 8.46001 14.0307V17.4397C8.46001 18.8497 7.33001 19.9997 5.92001 19.9997H2.54001C1.14001 19.9997 6.99452e-06 18.8497 6.99452e-06 17.4397V14.0307C6.99452e-06 12.6107 1.14001 11.4697 2.54001 11.4697ZM14.08 11.4697H17.46C18.86 11.4697 20 12.6107 20 14.0307V17.4397C20 18.8497 18.86 19.9997 17.46 19.9997H14.08C12.67 19.9997 11.54 18.8497 11.54 17.4397V14.0307C11.54 12.6107 12.67 11.4697 14.08 11.4697Z" fill="#D5D5E1"/>
</svg>
