<svg width="24" height="24" viewBox="0 0 24 24" fill="none" xmlns="http://www.w3.org/2000/svg">
<path fill-rule="evenodd" clip-rule="evenodd" d="M5.54596 3.86824C5.15543 3.47772 4.52227 3.47772 4.13174 3.86824C3.74122 4.25877 3.74122 4.89193 4.13174 5.28245L10.8493 12L4.13174 18.7175C3.74122 19.1081 3.74122 19.7412 4.13174 20.1318C4.52227 20.5223 5.15543 20.5223 5.54596 20.1318L12.2635 13.4142L18.981 20.1317C19.3715 20.5222 20.0047 20.5222 20.3952 20.1317C20.7857 19.7412 20.7857 19.108 20.3952 18.7175L13.6777 12L20.3952 5.28252C20.7857 4.89199 20.7857 4.25883 20.3952 3.8683C20.0047 3.47778 19.3715 3.47778 18.981 3.8683L12.2635 10.5858L5.54596 3.86824Z" fill="black"/>
</svg>
