<svg width="40" height="40" viewBox="0 0 40 40" fill="none" xmlns="http://www.w3.org/2000/svg">
<rect opacity="0.1" width="40" height="40" rx="15" fill="#B548C6"/>
<path fill-rule="evenodd" clip-rule="evenodd" d="M22.6364 15.0687C22.899 15.0723 23.1622 15.0759 23.4263 15.0786C26.2641 15.0786 28.3331 17.1018 28.3331 19.8956V23.4842C28.3331 26.2781 26.2641 28.3012 23.4263 28.3012C22.2896 28.3253 21.1528 28.3333 20.0079 28.3333C18.863 28.3333 17.7099 28.3253 16.5732 28.3012C13.7354 28.3012 11.6664 26.2781 11.6664 23.4842V19.8956C11.6664 17.1018 13.7354 15.0786 16.5814 15.0786C17.6527 15.0626 18.7485 15.0465 19.8607 15.0465V14.91C19.8607 14.3561 19.3946 13.9065 18.8385 13.9065H18.0289C17.1048 13.9065 16.3524 13.1679 16.3524 12.2687C16.3524 11.9396 16.6304 11.6666 16.9657 11.6666C17.3092 11.6666 17.5791 11.9396 17.5791 12.2687C17.5791 12.5096 17.7835 12.7023 18.0289 12.7023H18.8385C20.0733 12.7103 21.0792 13.6978 21.0874 14.902V15.0546C21.603 15.0546 22.1185 15.0616 22.6364 15.0687ZM19.0431 22.288H18.1844V23.139C18.1844 23.4682 17.9064 23.7411 17.5711 23.7411C17.2276 23.7411 16.9577 23.4682 16.9577 23.139V22.288H16.0908C15.7556 22.288 15.4775 22.0231 15.4775 21.6859C15.4775 21.3567 15.7556 21.0838 16.0908 21.0838H16.9577V20.2408C16.9577 19.9116 17.2276 19.6387 17.5711 19.6387C17.9064 19.6387 18.1844 19.9116 18.1844 20.2408V21.0838H19.0431C19.3784 21.0838 19.6564 21.3567 19.6564 21.6859C19.6564 22.0231 19.3784 22.288 19.0431 22.288ZM22.5188 20.9313H22.6006C22.9358 20.9313 23.2139 20.6664 23.2139 20.3292C23.2139 20 22.9358 19.7271 22.6006 19.7271H22.5188C22.1753 19.7271 21.9054 20 21.9054 20.3292C21.9054 20.6664 22.1753 20.9313 22.5188 20.9313ZM23.9172 23.693H23.999C24.3343 23.693 24.6123 23.428 24.6123 23.0908C24.6123 22.7617 24.3343 22.4887 23.999 22.4887H23.9172C23.5729 22.4887 23.3039 22.7617 23.3039 23.0908C23.3039 23.428 23.5729 23.693 23.9172 23.693Z" fill="#B548C6"/>
</svg>
