<svg width="18" height="17" viewBox="0 0 18 17" fill="none" xmlns="http://www.w3.org/2000/svg">
<path fill-rule="evenodd" clip-rule="evenodd" d="M11.6364 3.56873C11.899 3.57233 12.1622 3.57594 12.4263 3.57864C15.2641 3.57864 17.3331 5.60176 17.3331 8.39559V11.9842C17.3331 14.7781 15.2641 16.8012 12.4263 16.8012C11.2896 16.8253 10.1528 16.8333 9.00793 16.8333C7.86301 16.8333 6.70992 16.8253 5.57318 16.8012C2.73543 16.8012 0.666412 14.7781 0.666412 11.9842V8.39559C0.666412 5.60176 2.73543 3.57864 5.58136 3.57864C6.65267 3.56258 7.74852 3.54652 8.86072 3.54652V3.41004C8.86072 2.85609 8.39458 2.40651 7.83848 2.40651H7.02886C6.10475 2.40651 5.35238 1.66791 5.35238 0.768746C5.35238 0.439587 5.63043 0.166626 5.96573 0.166626C6.3092 0.166626 6.57907 0.439587 6.57907 0.768746C6.57907 1.00959 6.78352 1.20227 7.02886 1.20227H7.83848C9.07335 1.2103 10.0792 2.19778 10.0874 3.40202V3.55455C10.603 3.55455 11.1185 3.56162 11.6364 3.56873ZM8.04309 10.788H7.1844V11.639C7.1844 11.9682 6.90635 12.2411 6.57106 12.2411C6.22758 12.2411 5.95771 11.9682 5.95771 11.639V10.788H5.09085C4.75555 10.788 4.4775 10.5231 4.4775 10.1859C4.4775 9.85674 4.75555 9.58378 5.09085 9.58378H5.95771V8.74081C5.95771 8.41165 6.22758 8.13869 6.57106 8.13869C6.90635 8.13869 7.1844 8.41165 7.1844 8.74081V9.58378H8.04309C8.37838 9.58378 8.65644 9.85674 8.65644 10.1859C8.65644 10.5231 8.37838 10.788 8.04309 10.788ZM11.5188 9.43129H11.6006C11.9358 9.43129 12.2139 9.16636 12.2139 8.82917C12.2139 8.50001 11.9358 8.22705 11.6006 8.22705H11.5188C11.1753 8.22705 10.9054 8.50001 10.9054 8.82917C10.9054 9.16636 11.1753 9.43129 11.5188 9.43129ZM12.9172 12.193H12.999C13.3343 12.193 13.6123 11.928 13.6123 11.5908C13.6123 11.2617 13.3343 10.9887 12.999 10.9887H12.9172C12.5729 10.9887 12.3039 11.2617 12.3039 11.5908C12.3039 11.928 12.5729 12.193 12.9172 12.193Z" fill="#B548C6"/>
</svg>
