<svg width="20" height="20" viewBox="0 0 20 20" fill="none" xmlns="http://www.w3.org/2000/svg">
<path fill-rule="evenodd" clip-rule="evenodd" d="M10.3265 0.209663C10.4862 0.0663223 10.6974 -0.00881318 10.9136 0.000824899C15.4844 0.137655 19.3045 3.4558 19.9968 7.89063C20.0012 7.91711 20.0012 7.94411 19.9968 7.97059C20.0117 8.18043 19.9408 8.38744 19.7997 8.54585C19.6586 8.70425 19.4591 8.80099 19.2451 8.81466L11.5656 9.3211C11.3117 9.34362 11.0598 9.26005 10.8719 9.09092C10.684 8.92179 10.5775 8.68278 10.5785 8.43261L10.0624 0.889316V0.764927C10.0717 0.552776 10.1668 0.353003 10.3265 0.209663ZM9.79977 11.2936L16.4559 10.8671L16.5012 10.8849C16.787 10.8895 17.0593 11.0054 17.258 11.2071C17.4567 11.4087 17.5656 11.6795 17.5608 11.9599C17.2985 15.782 14.4963 18.9755 10.6829 19.7982C6.8695 20.621 2.9603 18.8754 1.0879 15.5139C0.537339 14.5457 0.189425 13.4794 0.064576 12.3775C0.0161534 12.051 -0.00504753 11.7212 0.00118406 11.3913C0.0138045 7.32708 2.9074 3.81908 6.95619 2.95951C7.44632 2.86777 7.93774 3.11249 8.15158 3.5548C8.20482 3.63506 8.24742 3.72165 8.27837 3.81247C8.35426 4.98399 8.43298 6.14443 8.51137 7.29997C8.57329 8.21265 8.635 9.12228 8.69494 10.0319C8.69185 10.2462 8.72552 10.4594 8.79456 10.6627C8.95707 11.0628 9.36149 11.3165 9.79977 11.2936Z" fill="#D5D5E1"/>
</svg>
