<svg width="24" height="24" viewBox="0 0 24 24" fill="none" xmlns="http://www.w3.org/2000/svg">
<path fill-rule="evenodd" clip-rule="evenodd" d="M20.4023 13.5801C20.76 13.7701 21.0359 14.0701 21.2301 14.3701C21.6082 14.9901 21.5776 15.7501 21.2097 16.4201L20.4943 17.6201C20.1162 18.2601 19.411 18.6601 18.6854 18.6601C18.3277 18.6601 17.9292 18.5601 17.6022 18.3601C17.3364 18.1901 17.0299 18.1301 16.7028 18.1301C15.6911 18.1301 14.8429 18.9601 14.8122 19.9501C14.8122 21.1001 13.872 22.0001 12.6968 22.0001H11.3069C10.1214 22.0001 9.18122 21.1001 9.18122 19.9501C9.16078 18.9601 8.31256 18.1301 7.30082 18.1301C6.96358 18.1301 6.65699 18.1901 6.4015 18.3601C6.07447 18.5601 5.66569 18.6601 5.31822 18.6601C4.58241 18.6601 3.87726 18.2601 3.49914 17.6201L2.79399 16.4201C2.41587 15.7701 2.39543 14.9901 2.77355 14.3701C2.93706 14.0701 3.24365 13.7701 3.59112 13.5801C3.87726 13.4401 4.06122 13.2101 4.23495 12.9401C4.74593 12.0801 4.43934 10.9501 3.57068 10.4401C2.55894 9.87012 2.23191 8.60012 2.81443 7.61012L3.49914 6.43012C4.09188 5.44012 5.3591 5.09012 6.38106 5.67012C7.27016 6.15012 8.42497 5.83012 8.94617 4.98012C9.10969 4.70012 9.20166 4.40012 9.18122 4.10012C9.16078 3.71012 9.2732 3.34012 9.46737 3.04012C9.8455 2.42012 10.5302 2.02012 11.2762 2.00012H12.7172C13.4734 2.00012 14.1582 2.42012 14.5363 3.04012C14.7202 3.34012 14.8429 3.71012 14.8122 4.10012C14.7918 4.40012 14.8837 4.70012 15.0473 4.98012C15.5685 5.83012 16.7233 6.15012 17.6226 5.67012C18.6343 5.09012 19.9118 5.44012 20.4943 6.43012L21.179 7.61012C21.7717 8.60012 21.4447 9.87012 20.4228 10.4401C19.5541 10.9501 19.2475 12.0801 19.7687 12.9401C19.9322 13.2101 20.1162 13.4401 20.4023 13.5801ZM9.10958 12.0101C9.10958 13.5801 10.4075 14.8301 12.0119 14.8301C13.6164 14.8301 14.8836 13.5801 14.8836 12.0101C14.8836 10.4401 13.6164 9.1801 12.0119 9.1801C10.4075 9.1801 9.10958 10.4401 9.10958 12.0101Z" fill="#D5D5E1"/>
</svg>
