<svg width="25" height="26" viewBox="0 0 25 26" fill="none" xmlns="http://www.w3.org/2000/svg">
<path fill-rule="evenodd" clip-rule="evenodd" d="M10.8801 2.39869C10.0422 2.39869 9.32932 2.98097 9.12922 3.76577H15.8576C15.6575 2.98097 14.9446 2.39869 14.1067 2.39869H10.8801ZM17.7584 3.76581H20.2346C22.8609 3.76581 24.9995 5.93035 24.9995 8.58857C24.9995 8.58857 24.9245 9.71388 24.8995 11.281C24.897 11.405 24.8369 11.5265 24.7381 11.5999C24.1366 12.0442 23.5863 12.4113 23.5363 12.4366C21.4602 13.829 19.0478 14.8088 16.4778 15.2961C16.3102 15.329 16.1451 15.2417 16.06 15.0923C15.3397 13.8442 13.994 13.0316 12.4933 13.0316C11.0025 13.0316 9.64433 13.8354 8.90271 15.0847C8.81642 15.2316 8.65384 15.3164 8.48751 15.2847C5.93873 14.7961 3.52628 13.8177 1.46274 12.4493L0.262143 11.6139C0.162093 11.5506 0.0995618 11.4367 0.0995618 11.3101C0.062043 10.6645 -0.000488281 8.58857 -0.000488281 8.58857C-0.000488281 5.93035 2.13808 3.76581 4.76439 3.76581H7.22813C7.46575 1.93037 9.00401 0.5 10.88 0.5H14.1066C15.9825 0.5 17.5208 1.93037 17.7584 3.76581ZM24.5742 14.019L24.5242 14.0444C21.9979 15.7406 18.9589 16.8671 15.7698 17.3355C15.3196 17.3988 14.8693 17.1076 14.7443 16.6519C14.4691 15.614 13.5812 14.9304 12.5182 14.9304H12.5057H12.4806C11.4176 14.9304 10.5297 15.614 10.2545 16.6519C10.1295 17.1076 9.67924 17.3988 9.22902 17.3355C6.03992 16.8671 3.0009 15.7406 0.47464 14.0444C0.462133 14.0317 0.337071 13.9558 0.237021 14.019C0.124465 14.0823 0.124465 14.2342 0.124465 14.2342L0.212008 20.6899C0.212008 23.3481 2.33807 25.5 4.96439 25.5H20.0219C22.6482 25.5 24.7743 23.3481 24.7743 20.6899L24.8743 14.2342C24.8743 14.2342 24.8743 14.0823 24.7618 14.019C24.6993 13.9811 24.6242 13.9937 24.5742 14.019ZM13.4312 19.3228C13.4312 19.8545 13.0185 20.2722 12.4932 20.2722C11.9805 20.2722 11.5553 19.8545 11.5553 19.3228V17.6899C11.5553 17.1709 11.9805 16.7406 12.4932 16.7406C13.0185 16.7406 13.4312 17.1709 13.4312 17.6899V19.3228Z" fill="#22B07D"/>
</svg>
